<?xml version="1.0" encoding="UTF-8" standalone="no"?>
<!-- Created with Inkscape (http://www.inkscape.org/) -->

<svg
   width="59.205704mm"
   height="12.863282mm"
   viewBox="0 0 59.205704 12.863282"
   version="1.1"
   id="svg1"
   xmlns:xlink="http://www.w3.org/1999/xlink"
   xmlns="http://www.w3.org/2000/svg"
   xmlns:svg="http://www.w3.org/2000/svg">
  <defs
     id="defs1" />
  <g
     id="g1"
     transform="translate(-66.103516,-47.101564)">
    <g
       id="layer1">
      <path
         style="font-weight:bold;font-size:14.1111px;font-family:'GC Vensca Mono Demo';-inkscape-font-specification:'GC Vensca Mono Demo Bold';display:inline;stroke-width:20.5"
         xlink:href="#text1"
         id="path1"
         d="m 69.910156,47.101562 c -0.963052,10e-7 -1.985439,0.325613 -2.71289,1.017579 a 1.7055214,1.7055214 0 0 0 -0.01563,0.01563 c -0.72141,0.703373 -1.078125,1.737704 -1.078125,2.703125 v 5.376953 c 0,0.96542 0.356214,1.992933 1.064453,2.701172 a 1.7055214,1.7055214 0 0 0 0.0293,0.03125 c 0.727451,0.691965 1.749838,1.017578 2.71289,1.017578 h 2.484375 c 0.963053,0 1.991639,-0.32808 2.714844,-1.033203 0.06783,-0.06618 0.09262,-0.164533 0.154297,-0.236329 0.04077,0.05144 0.05148,0.118692 0.0957,0.167969 a 1.7055214,1.7055214 0 0 0 0.01563,0.01758 c 0.675746,0.733667 1.703222,1.083985 2.636719,1.083985 h 1.509765 a 1.7055214,1.7055214 0 0 0 0.837891,-0.375 1.7055214,1.7055214 0 0 0 0.234375,0.234375 h 1.947266 a 1.7055214,1.7055214 0 0 0 0.832031,-0.832032 1.7055214,1.7055214 0 0 0 0.832031,0.832032 h 1.947266 a 1.7055214,1.7055214 0 0 0 1.705078,-1.705078 v -3.435547 a 1.7055214,1.7055214 0 0 0 1.019531,1.019531 h 1.923828 l -0.0039,2.414062 a 1.7055214,1.7055214 0 0 0 1.705078,1.707032 h 1.962891 a 1.7055214,1.7055214 0 0 0 1.027343,-1.027344 l 0.05078,0.101562 a 1.7055214,1.7055214 0 0 0 1.517578,0.925782 h 2.144531 a 1.7055214,1.7055214 0 0 0 0.941402,-0.527344 1.7055214,1.7055214 0 0 0 0.52735,0.527344 h 2.01758 a 1.7055214,1.7055214 0 0 0 1.03906,-1.039063 1.7055214,1.7055214 0 0 0 1.55664,1.039063 h 2.1875 a 1.7055214,1.7055214 0 0 0 1.03711,-0.552735 c 0.67498,0.456513 1.45576,0.69336 2.22266,0.69336 h 1.39648 a 1.7055214,1.7055214 0 0 0 1.0625,-0.371094 l 0.0117,-0.0078 a 1.7055214,1.7055214 0 0 0 0.23828,0.238282 h 1.83398 a 1.7055214,1.7055214 0 0 0 0.56446,-0.564453 1.7055214,1.7055214 0 0 0 1.07422,0.564453 h 2.07421 a 1.7055214,1.7055214 0 0 0 1.26563,-0.867188 1.7055214,1.7055214 0 0 0 1.27344,0.867188 h 2.07422 a 1.7055214,1.7055214 0 0 0 1.59179,-2.316407 l -1.16211,-3.027343 1.16211,-3.015625 a 1.7055214,1.7055214 0 0 0 -1.59179,-2.31836 h -2.07422 a 1.7055214,1.7055214 0 0 0 -1.27344,0.867188 1.7055214,1.7055214 0 0 0 -1.26563,-0.867188 h -2.07421 a 1.7055214,1.7055214 0 0 0 -1.3418,0.705078 c -0.69091,-0.527941 -1.54417,-0.832031 -2.38477,-0.832031 h -4.00781 a 1.7055214,1.7055214 0 0 0 -0.53125,0.53125 c -0.008,-0.01914 -0.004,-0.03954 -0.0117,-0.05859 -0.19426,-0.471127 -0.49831,-0.902709 -0.86914,-1.242187 -0.35954,-0.33726 -0.79461,-0.60215 -1.25781,-0.767578 -0.4712,-0.168283 -0.96391,-0.240235 -1.44922,-0.240235 h -4.38867 a 1.7055214,1.7055214 0 0 0 -1.70508,1.705079 v 0.199218 H 97.060547 A 1.7055214,1.7055214 0 0 0 96.169922,49.6875 V 48.947266 A 1.7055214,1.7055214 0 0 0 94.464844,47.242187 H 92.517578 A 1.7055214,1.7055214 0 0 0 90.8125,48.945312 l -0.002,0.636719 c -0.581708,-0.341605 -1.22298,-0.576172 -1.863281,-0.576172 h -1.482422 a 1.7055214,1.7055214 0 0 0 -1.052735,0.400391 1.7055214,1.7055214 0 0 0 -0.259765,-0.259766 h -1.947266 a 1.7055214,1.7055214 0 0 0 -0.832031,0.832032 1.7055214,1.7055214 0 0 0 -0.832031,-0.832032 H 80.59375 a 1.7055214,1.7055214 0 0 0 -1.255859,1.25586 1.7055214,1.7055214 0 0 0 -1.25586,-1.25586 h -1.947265 a 1.7055214,1.7055214 0 0 0 -0.21875,0.21875 c -0.184444,-0.462238 -0.457032,-0.891938 -0.816407,-1.236328 -0.722753,-0.699555 -1.745707,-1.027344 -2.705078,-1.027344 z m 21.658203,2.988282 c 0.01042,0.01107 0.01823,0.02409 0.01172,0.01953 -0.0053,-0.0057 -0.0063,-0.01386 -0.01172,-0.01953 z m 16.814451,4.992187 c -0.007,0.01042 -0.0156,0.01953 -0.0137,0.01367 0.003,-0.0055 0.0103,-0.0082 0.0137,-0.01367 z" />
      <path
         d="m 74.497165,52.926317 v 3.287886 q 0,0.931333 -0.578555,1.495777 -0.564444,0.550333 -1.523999,0.550333 h -2.483553 q -0.959555,0 -1.53811,-0.550333 -0.564444,-0.564444 -0.564444,-1.495777 v -5.376329 q 0,-0.931333 0.564444,-1.481666 0.578555,-0.550332 1.53811,-0.550332 h 2.483553 q 0.959555,0 1.523999,0.550332 0.578555,0.550333 0.578555,1.481666 v 1.396999 H 72.465167 V 51.43054 q 0,-0.395111 -0.183444,-0.536222 -0.169334,-0.141111 -0.493889,-0.141111 h -1.269999 q -0.324555,0 -0.508,0.141111 -0.169333,0.141111 -0.169333,0.536222 v 4.205108 q 0,0.381 0.169333,0.536222 0.183445,0.141111 0.508,0.141111 h 1.269999 q 0.324555,0 0.493889,-0.141111 0.183444,-0.155222 0.183444,-0.536222 V 54.746649 H 71.09639 v -1.820332 z m 6.095994,-2.074332 h 1.947332 v 7.267217 H 80.593159 V 57.20198 h -0.127 l -0.945443,1.058333 h -1.509888 q -0.888999,0 -1.382888,-0.536222 -0.493888,-0.550333 -0.493888,-1.509888 v -5.362218 h 1.947331 v 4.86833 q 0,0.366888 0.183445,0.507999 0.183444,0.141111 0.507999,0.141111 h 1.820332 z m 5.559772,7.267217 H 84.2056 v -7.267217 h 1.947331 v 0.917222 h 0.127 l 1.185333,-1.058333 h 1.481665 q 0.889,0 1.382888,0.550333 0.508,0.536222 0.508,1.495777 v 1.241776 h -1.961443 v -0.747888 q 0,-0.366889 -0.183444,-0.508 -0.183445,-0.141111 -0.508,-0.141111 h -2.031999 z m 6.364105,-9.172215 h 1.947332 v 4.557885 h 1.227666 l 1.368777,-2.652887 h 2.144887 l -1.876776,3.640664 1.876776,3.626553 h -2.144887 l -1.354666,-2.638776 h -1.241777 v 2.638776 h -1.961443 z m 8.156214,0 h 4.38855 q 0.47978,0 0.87489,0.141111 0.39511,0.141111 0.67733,0.409221 0.29634,0.268111 0.45156,0.649111 0.15522,0.366889 0.15522,0.832555 v 2.116665 q 0,0.634999 -0.29633,1.100666 -0.28222,0.465666 -0.77611,0.705555 l 1.32644,3.217331 h -2.18722 l -1.24178,-2.991554 h -1.35466 v 2.991554 h -2.01789 z m 3.78178,4.23333 q 0.32455,0 0.49388,-0.141111 0.18345,-0.141111 0.18345,-0.536222 v -0.931333 q 0,-0.395111 -0.18345,-0.536222 -0.16933,-0.141111 -0.49388,-0.141111 h -1.76389 v 2.285999 z m 4.41677,1.848554 q 0.0141,-0.776111 0.508,-1.171222 0.508,-0.409222 1.36878,-0.409222 h 2.69522 v -0.310444 q 0,-0.366888 -0.18345,-0.507999 -0.18344,-0.141111 -0.47978,-0.141111 h -3.59833 v -1.763888 h 4.00756 q 0.95955,0 1.52399,0.550333 0.56445,0.550333 0.56445,1.481666 v 5.362218 h -1.83444 v -0.804333 h -0.127 l -1.18534,0.945444 h -1.397 q -0.86077,0 -1.36877,-0.395111 -0.508,-0.395111 -0.49389,-1.171221 z m 1.83444,1.015999 q 0,0.197555 0.127,0.324555 0.127,0.112889 0.33867,0.112889 h 2.27189 v -1.439332 h -2.27189 q -0.43745,0 -0.46567,0.437444 z m 9.77899,-2.539998 1.04422,-2.652887 h 2.07434 l -1.397,3.626553 1.397,3.640664 h -2.07434 l -1.04422,-2.652887 h -0.46566 l -1.03011,2.652887 h -2.07434 l 1.38289,-3.640664 -1.38289,-3.626553 h 2.07434 l 1.03011,2.652887 z"
         id="text1"
         style="font-weight:bold;font-size:14.1111px;font-family:'GC Vensca Mono Demo';-inkscape-font-specification:'GC Vensca Mono Demo Bold';fill:#2d5016;stroke-width:20.5"
         aria-label="GurkRax" />
    </g>
  </g>
</svg>
