<svg xmlns="http://www.w3.org/2000/svg" version="1.1" xmlns:xlink="http://www.w3.org/1999/xlink" viewBox="0 0 200 200" width="200" height="200"><metadata><rdf:RDF xmlns:rdf="http://www.w3.org/1999/02/22-rdf-syntax-ns#" xmlns:dc="http://purl.org/dc/elements/1.1/"><rdf:Description><dc:creator>RealFaviconGenerator</dc:creator><dc:source>https://realfavicongenerator.net</dc:source></rdf:Description></rdf:RDF></metadata><rect width="200" height="200" fill="url('#gradient')"></rect><defs><linearGradient id="gradient" gradientTransform="rotate(45 0.5 0.5)"><stop offset="0%" stop-color="#2c1f37"></stop><stop offset="100%" stop-color="#15374d"></stop></linearGradient></defs><g><g fill="#7dabaa" transform="matrix(9.361097003555104,0,0,9.361097003555104,-0.02679657034003924,171.1886819340118)" stroke="#f5e8ce" stroke-width="0.2"><path d="M8.87 0L6.36-5.02L4.50-5.02L4.50 0L1.07 0L1.07-14.22L6.67-14.22Q9.20-14.22 10.63-13.10Q12.05-11.97 12.05-9.92L12.05-9.92Q12.05-8.44 11.45-7.46Q10.85-6.48 9.57-5.88L9.57-5.88L12.54-0.15L12.54 0L8.87 0ZM4.50-11.57L4.50-7.67L6.67-7.67Q7.65-7.67 8.14-8.18Q8.63-8.69 8.63-9.61Q8.63-10.53 8.13-11.05Q7.64-11.57 6.67-11.57L6.67-11.57L4.50-11.57ZM18.00 0L14.70 0L14.70-8.28L13.16-8.28L13.16-10.57L14.70-10.57L14.70-11.41Q14.70-13.21 15.76-14.21Q16.83-15.21 18.75-15.21L18.75-15.21Q19.45-15.21 20.29-15L20.29-15L20.30-12.58Q20-12.67 19.49-12.67L19.49-12.67Q18.00-12.67 18.00-11.38L18.00-11.38L18.00-10.57L20.06-10.57L20.06-8.28L18.00-8.28L18.00 0Z"></path></g></g></svg>